<?xml version="1.0" encoding="utf-8"?>
<!-- Generator: Adobe Illustrator 22.0.0, SVG Export Plug-In . SVG Version: 6.00 Build 0)  -->
<svg version="1.1" id="Layer_1" xmlns="http://www.w3.org/2000/svg" xmlns:xlink="http://www.w3.org/1999/xlink" x="0px" y="0px"
	 viewBox="0 0 583.4 242" style="enable-background:new 0 0 583.4 242;" xml:space="preserve">
<style type="text/css">
	.st0{opacity:0.63;}
	.st1{fill:#00A5E8;}
	.st2{fill:#099E9C;}
	.st3{opacity:0.58;fill:#00A5E8;}
	.st4{opacity:0.63;fill:#00A5E8;}
</style>
<g>
	<g class="st0">
		<path class="st1" d="M138,60.8c0-5.7-0.7-10-2-12.7c-1.3-2.8-3.3-4.8-5.9-6c-2.6-1.2-7.4-2.2-14.4-3c-7-0.8-16-1.2-27-1.2h-5.3
			c-8.4,0-17,0.4-26,1.1c-8.9,0.8-15.4,2-19.5,3.8c-4.1,1.8-6.7,4.2-7.8,7.2c-1.1,3-1.7,6.7-1.7,11c0,7.7,2.1,13,6.4,15.8
			C39,79.6,45.2,81,53.3,81c1.4,0,3.6,0,6.8,0c3.1,0,5.5,0,7.1,0h29.9c5.2,0,9.8,0.1,13.9,0.2c4.1,0.1,10.2,0.6,18.4,1.5
			c8.2,0.9,14.8,3.8,19.8,8.7c5,4.9,7.5,13.3,7.5,25.1c0,7.8-1.2,14.2-3.6,19.4c-2.4,5.2-6.5,9-12.3,11.6
			c-5.8,2.6-12.7,4.3-20.9,5.1c-8.2,0.8-17.1,1.1-26.7,1.1H83c-9.5,0-16.6-0.1-21.4-0.3c-4.8-0.2-12.1-0.9-21.9-2.2
			c-9.8-1.3-16.8-4.6-21-10c-4.2-5.4-6.3-14.8-6.3-28.3h15.4v2.7c0,6.5,0.6,11.3,1.8,14.4c1.2,3.1,4.3,5.4,9.3,6.8
			c5,1.5,11.7,2.4,20.1,2.9c8.4,0.4,16.6,0.7,24.7,0.7c13.2,0,24.3-0.6,33.4-1.7c9.1-1.2,15.3-3.4,18.6-6.6
			c3.3-3.2,4.9-8.5,4.9-15.9c0-9.3-2.1-15.2-6.4-17.7c-4.2-2.5-11.4-3.8-21.6-3.8H83.7c-4.8,0-11.3-0.1-19.5-0.3
			c-8.2-0.2-13-0.3-14.5-0.3c-11.9,0-21.1-2.3-27.5-6.8c-6.5-4.6-9.7-12.3-9.7-23.2c0-8.6,1.4-15.8,4.2-21.6
			c2.8-5.8,7.5-9.9,14.2-12.4c6.7-2.5,14.5-4.1,23.5-4.8c9-0.7,19.1-1,30.2-1c9.2,0,15.9,0.1,20,0.3c4.1,0.2,10.8,0.8,20.1,1.7
			c9.3,1,16.4,4.2,21.4,9.6c4.9,5.5,7.4,13.8,7.4,24.9H138z"/>
		<path class="st1" d="M202.3,25.6v126.9h-15.4V25.6H202.3z"/>
		<path class="st1" d="M361,60.8c0-5.7-0.7-10-2-12.7c-1.3-2.8-3.3-4.8-5.9-6c-2.6-1.2-7.4-2.2-14.4-3c-7-0.8-16-1.2-27-1.2h-5.3
			c-8.4,0-17,0.4-26,1.1c-8.9,0.8-15.4,2-19.5,3.8c-4.1,1.8-6.7,4.2-7.8,7.2c-1.1,3-1.7,6.7-1.7,11c0,7.7,2.1,13,6.4,15.8
			c4.2,2.8,10.4,4.2,18.6,4.2c1.4,0,3.6,0,6.8,0c3.1,0,5.5,0,7.1,0h29.9c5.2,0,9.8,0.1,13.9,0.2c4.1,0.1,10.2,0.6,18.4,1.5
			c8.2,0.9,14.8,3.8,19.8,8.7c5,4.9,7.5,13.3,7.5,25.1c0,7.8-1.2,14.2-3.6,19.4c-2.4,5.2-6.5,9-12.3,11.6
			c-5.8,2.6-12.7,4.3-20.9,5.1c-8.2,0.8-17.1,1.1-26.7,1.1H306c-9.5,0-16.6-0.1-21.4-0.3c-4.8-0.2-12.1-0.9-21.9-2.2
			c-9.8-1.3-16.8-4.6-21-10c-4.2-5.4-6.3-14.8-6.3-28.3h15.4v2.7c0,6.5,0.6,11.3,1.8,14.4c1.2,3.1,4.3,5.4,9.3,6.8
			c5,1.5,11.7,2.4,20.1,2.9c8.4,0.4,16.6,0.7,24.7,0.7c13.2,0,24.3-0.6,33.4-1.7c9.1-1.2,15.3-3.4,18.6-6.6
			c3.3-3.2,4.9-8.5,4.9-15.9c0-9.3-2.1-15.2-6.4-17.7c-4.2-2.5-11.4-3.8-21.6-3.8h-29.1c-4.8,0-11.3-0.1-19.5-0.3
			c-8.2-0.2-13-0.3-14.5-0.3c-11.9,0-21.1-2.3-27.5-6.8c-6.5-4.6-9.7-12.3-9.7-23.2c0-8.6,1.4-15.8,4.2-21.6
			c2.8-5.8,7.5-9.9,14.2-12.4c6.7-2.5,14.5-4.1,23.5-4.8c9-0.7,19.1-1,30.2-1c9.2,0,15.9,0.1,20,0.3c4.1,0.2,10.8,0.8,20.1,1.7
			c9.3,1,16.4,4.2,21.4,9.6c4.9,5.5,7.4,13.8,7.4,24.9H361z"/>
		<path class="st1" d="M408.7,51.6C411.1,41,415.9,33.9,423,30c7.1-3.8,16.5-5.7,28.2-5.7c6.2,0,15.6,0,28.1,0c12.5,0,21.8,0,28.1,0
			c26.4,0,43.3,3.5,50.7,10.6c7.4,7,11.1,23.4,11.1,49.2v4.6v4c0,9.1-0.5,18.7-1.6,28.8c-1.1,10.1-4.7,17.9-10.8,23.3
			c-6.2,5.5-15.4,8.2-27.7,8.2c-3.8,0.4-8.7,0.6-14.6,0.8c-5.9,0.1-11.5,0.2-16.8,0.2h-28.3h-3.4c-7.7,0-15.2-0.4-22.4-1.1
			c-7.2-0.8-13.2-2.2-18.1-4.2c-4.9-2-8.9-5.6-12-10.6c-3.1-5-5.1-11.5-6-19.6c-0.9-8-1.3-17.5-1.3-28.4c0-10.3,0.1-17.7,0.4-22.2
			C406.7,63.2,407.5,57.8,408.7,51.6z M422.1,98.7c0,16,1.7,26.9,5.2,32.6c3.4,5.7,12.5,8.5,27.3,8.5l32.8,0.6h11.8h4
			c9,0,18.1-0.4,27.3-1.3c9.2-0.9,15.2-3.9,18.2-9c3-5.1,4.5-12.8,4.5-23.1V80.8c0-8-0.3-14.9-1-20.8c-0.6-5.9-2-10.4-4.2-13.5
			c-2.2-3.1-5-5.1-8.5-6.1c-3.5-1-7-1.6-10.7-1.9c-3.6-0.3-7.5-0.5-11.5-0.5l-29.9-0.6L458,38c-14.5,0-24,1.9-28.5,5.6
			c-4.6,3.8-6.8,12.6-6.8,26.6l-0.6,19.1V98.7z"/>
	</g>
	<g>
		<path class="st2" d="M37.4,189.8c4.9,0,8.1,1.1,9.6,3.4c1.5,2.3,2.3,6,2.3,11.2c0,2.7-0.2,5.2-0.6,7.5c-0.4,2.3-1.2,4.1-2.4,5.3
			c-1.2,1.2-2.6,2-4.2,2.3c-1.7,0.3-3.6,0.5-5.9,0.5h-0.4H12.2v-30.1H37.4z M36.2,216.8c4.2,0,6.8-0.9,7.8-2.8
			c1-1.9,1.5-5.1,1.5-9.7c0-4.2-0.5-7.2-1.6-9c-1-1.8-3.5-2.6-7.4-2.6H15.9v24.1H36.2z"/>
		<path class="st2" d="M62.4,202.8h25.2v3H62.4v11h26.5v3H58.7v-30.1h29.8v3.1H62.4V202.8z"/>
		<path class="st2" d="M101.6,219.9h-3.7v-30.1l6.1,0l27.8,27.2v-27.2h3.7v30.1l-6,0l-27.9-27.3V219.9z"/>
		<path class="st2" d="M160,219.9h-3.7v-27h-15.2v-3.1h34.1v3.1H160V219.9z"/>
		<path class="st2" d="M184.1,213.1l-3.8,6.8l-4.3,0l17.8-30.1h4.9l17.9,30.1l-4.2,0l-3.9-6.8H184.1z M196.2,192.5l-10.4,17.6h20.8
			L196.2,192.5z"/>
		<path class="st2" d="M249.1,216.8v3h-27.4v-30.1h3.7v27.1H249.1z"/>
		<path class="st2" d="M305.6,209.9c0,3.9-0.6,6.6-1.8,8c-1.2,1.4-3.9,2.1-8.2,2.1l-7.8,0.2h-3.3c-2.4,0-5.4-0.2-9.1-0.6
			c-3.7-0.4-5.6-3.2-5.6-8.4c0-0.6,0-1.7-0.1-3.3c-0.1-1.5-0.1-2.4-0.1-2.5c0-2.3,0-4,0.1-5.1c0-1.1,0.3-2.7,0.7-4.7
			c0.4-2,1.3-3.5,2.8-4.5c1.5-1,3.6-1.5,6.3-1.5c1.2-0.1,2.3-0.2,3.4-0.3c1.1,0,2.3-0.1,3.8-0.1h1.1h4.3c1.7,0,3.2,0,4.2,0.1
			c1.1,0.1,2.5,0.3,4.3,0.7c1.8,0.4,3,1.3,3.7,2.9c0.7,1.6,1,3.7,1,6.3h-3.6v-0.3c0-1.4-0.1-2.5-0.2-3.4c-0.2-0.9-0.6-1.5-1.2-1.9
			c-0.6-0.4-1.8-0.7-3.4-0.9c-1.7-0.2-3.9-0.3-6.9-0.3c-1.1,0-2.7,0.1-4.9,0.2c-2.2,0.1-3.9,0.2-5,0.2c-2.6,0.2-4.2,0.7-5,1.4
			c-0.7,0.7-1.2,1.9-1.4,3.7c-0.2,1.8-0.3,3.3-0.3,4.8c0,1.4,0,2.8,0,4.1c0,3.8,0.4,6.5,1.2,7.9c0.8,1.5,2.8,2.2,6.1,2.2h7h6.7
			c2.8,0,4.7-0.3,5.8-1c1.1-0.7,1.6-2.3,1.6-4.8v-1.2H305.6z"/>
		<path class="st2" d="M314.4,195.9c0.6-2.5,1.7-4.2,3.4-5.1c1.7-0.9,3.9-1.4,6.7-1.4c1.5,0,3.7,0,6.7,0c3,0,5.2,0,6.7,0
			c6.3,0,10.3,0.8,12,2.5c1.8,1.7,2.6,5.6,2.6,11.7v1.1v0.9c0,2.2-0.1,4.4-0.4,6.8c-0.3,2.4-1.1,4.2-2.6,5.5
			c-1.5,1.3-3.6,1.9-6.6,1.9c-0.9,0.1-2.1,0.2-3.5,0.2c-1.4,0-2.7,0-4,0h-6.7h-0.8c-1.8,0-3.6-0.1-5.3-0.3c-1.7-0.2-3.1-0.5-4.3-1
			c-1.2-0.5-2.1-1.3-2.8-2.5c-0.7-1.2-1.2-2.7-1.4-4.6c-0.2-1.9-0.3-4.2-0.3-6.7c0-2.4,0-4.2,0.1-5.3
			C313.9,198.7,314.1,197.4,314.4,195.9z M317.6,207.1c0,3.8,0.4,6.4,1.2,7.7c0.8,1.3,3,2,6.5,2l7.8,0.1h2.8h1
			c2.1,0,4.3-0.1,6.5-0.3c2.2-0.2,3.6-0.9,4.3-2.1c0.7-1.2,1.1-3,1.1-5.5v-6.2c0-1.9-0.1-3.5-0.2-4.9c-0.2-1.4-0.5-2.5-1-3.2
			c-0.5-0.7-1.2-1.2-2-1.4c-0.8-0.2-1.7-0.4-2.5-0.5c-0.9-0.1-1.8-0.1-2.7-0.1l-7.1-0.1l-7,0.1c-3.4,0-5.7,0.4-6.8,1.3
			c-1.1,0.9-1.6,3-1.6,6.3l-0.1,4.5V207.1z"/>
		<path class="st2" d="M365.5,219.9h-3.7v-30.1l6.1,0l27.8,27.2v-27.2h3.7v30.1l-6,0l-27.9-27.3V219.9z"/>
		<path class="st2" d="M444.7,209.9c0,3.9-0.6,6.6-1.8,8c-1.2,1.4-3.9,2.1-8.2,2.1l-7.8,0.2h-3.3c-2.4,0-5.4-0.2-9.1-0.6
			c-3.7-0.4-5.6-3.2-5.6-8.4c0-0.6,0-1.7-0.1-3.3c-0.1-1.5-0.1-2.4-0.1-2.5c0-2.3,0-4,0.1-5.1c0-1.1,0.3-2.7,0.7-4.7
			c0.4-2,1.3-3.5,2.8-4.5c1.5-1,3.6-1.5,6.3-1.5c1.2-0.1,2.3-0.2,3.4-0.3c1.1,0,2.3-0.1,3.8-0.1h1.1h4.3c1.7,0,3.2,0,4.2,0.1
			c1.1,0.1,2.5,0.3,4.3,0.7c1.8,0.4,3,1.3,3.7,2.9c0.7,1.6,1,3.7,1,6.3h-3.6v-0.3c0-1.4-0.1-2.5-0.2-3.4c-0.2-0.9-0.6-1.5-1.2-1.9
			c-0.6-0.4-1.8-0.7-3.4-0.9c-1.7-0.2-3.9-0.3-6.9-0.3c-1.1,0-2.7,0.1-4.9,0.2c-2.2,0.1-3.9,0.2-5,0.2c-2.6,0.2-4.2,0.7-5,1.4
			c-0.7,0.7-1.2,1.9-1.4,3.7c-0.2,1.8-0.3,3.3-0.3,4.8c0,1.4,0,2.8,0,4.1c0,3.8,0.4,6.5,1.2,7.9c0.8,1.5,2.8,2.2,6.1,2.2h7h6.7
			c2.8,0,4.7-0.3,5.8-1c1.1-0.7,1.6-2.3,1.6-4.8v-1.2H444.7z"/>
		<path class="st2" d="M457.4,202.8h25.2v3h-25.2v11h26.5v3h-30.2v-30.1h29.8v3.1h-26.2V202.8z"/>
		<path class="st2" d="M518,189.8c3.3,0,5.6,0.6,6.9,1.8c1.3,1.2,2,3.5,2,6.7c0,1.7-0.1,3.2-0.4,4.6c-0.2,1.3-0.7,2.3-1.4,3.1
			c-0.7,0.7-1.6,1.3-2.6,1.6c-1.1,0.3-2.6,0.5-4.7,0.5h-21.1v11.8H493v-30.1H518z M515.5,205.1c3,0,5-0.4,6-1.1
			c1-0.8,1.5-2.6,1.5-5.4c0-2.1-0.4-3.6-1.2-4.4c-0.8-0.8-2.2-1.3-4.3-1.3h-20.9v12.2H515.5z"/>
		<path class="st2" d="M549.4,219.9h-3.7v-27h-15.2v-3.1h34.1v3.1h-15.3V219.9z"/>
	</g>
	<g class="st0">
		<path class="st3" d="M-124.5,33.6c0,0,75.1-52.1,98,31.3c22.9,83.4-146,160.6-146,160.6S-258,104.5-226.7,44.1
			C-195.4-16.4-124.5,33.6-124.5,33.6z"/>
		<path class="st4" d="M-124.5,33.6c0,0-86.6-56.1-106.8,26.2c-20.6,84,140.7,168.3,140.7,168.3S-1.5,109.8-30.9,48.4
			C-60.3-13-124.5,33.6-124.5,33.6z"/>
	</g>
</g>
</svg>
